<svg width="current" height="current" viewBox="0 0 28 28" fill="current" xmlns="http://www.w3.org/2000/svg">
<path d="M14 28C21.732 28 28 21.732 28 14C28 6.26801 21.732 0 14 0C6.26801 0 0 6.26801 0 14C0 21.732 6.26801 28 14 28Z" fill="white"/>
<path fill-rule="evenodd" clip-rule="evenodd" d="M4.74878 23.5553C5.00028 22.2958 5.42096 21.2234 6.12495 20.5543C7.28171 19.4549 9.20233 18.3563 10.3722 17.7368C10.8675 17.474 10.9611 16.8444 10.5726 16.4502C9.35721 15.2178 8.74996 14.1783 8.74996 11.4065C8.74996 8.9117 10.5 6.41687 13.9991 6.41687C17.5 6.41687 19.25 8.9117 19.25 11.4065C19.25 14.1783 18.6427 15.2178 17.4274 16.4502C17.0389 16.8444 17.1325 17.474 17.6277 17.7368C18.7976 18.3563 20.7182 19.4549 21.875 20.5543C22.5787 21.2231 22.9994 22.2958 23.251 23.5556C20.8572 25.8735 17.5952 27.3 14 27.3C10.4047 27.3 7.14253 25.8734 4.74878 23.5553Z" fill="#62626A"/>
<path fill-rule="evenodd" clip-rule="evenodd" d="M14 26.8333C21.0877 26.8333 26.8333 21.0877 26.8333 14C26.8333 6.91235 21.0877 1.16667 14 1.16667C6.91235 1.16667 1.16667 6.91235 1.16667 14C1.16667 21.0877 6.91235 26.8333 14 26.8333ZM28 14C28 21.732 21.732 28 14 28C6.26801 28 0 21.732 0 14C0 6.26801 6.26801 0 14 0C21.732 0 28 6.26801 28 14Z" fill="#62626A"/>
</svg>
